<svg xmlns="http://www.w3.org/2000/svg" viewBox="0 0 512 512" role="img" aria-labelledby="title desc">
  <title id="title">WhereKeep icon</title>
  <desc id="desc">A white location pin and shelf mark on a teal background.</desc>
  <defs>
    <linearGradient id="bg" x1="80" x2="432" y1="56" y2="456" gradientUnits="userSpaceOnUse">
      <stop stop-color="#35D6C5" />
      <stop offset="1" stop-color="#0A5664" />
    </linearGradient>
  </defs>
  <rect width="512" height="512" rx="112" fill="url(#bg)" />
  <path
    fill="#fff"
    d="M256 76c-72 0-130 58-130 130 0 92 112 212 122 222a12 12 0 0 0 17 0c10-10 122-130 122-222 0-72-59-130-131-130Zm0 190a60 60 0 1 1 0-120 60 60 0 0 1 0 120Z"
  />
  <path
    fill="#0E7488"
    d="M226 189h60c12 0 22 10 22 22v10c0 12-10 22-22 22h-60c-12 0-22-10-22-22v-10c0-12 10-22 22-22Z"
  />
  <path
    fill="#fff"
    d="M156 382c0-10 8-18 18-18h164c10 0 18 8 18 18s-8 18-18 18H174c-10 0-18-8-18-18Zm34 54c0-10 8-18 18-18h96c10 0 18 8 18 18s-8 18-18 18h-96c-10 0-18-8-18-18Z"
    opacity=".92"
  />
</svg>
